<?xml version="1.0" encoding="utf-8"?>
<!-- Generator: Adobe Illustrator 22.0.1, SVG Export Plug-In . SVG Version: 6.00 Build 0)  -->
<svg version="1.1" id="Слой_1" xmlns="http://www.w3.org/2000/svg" xmlns:xlink="http://www.w3.org/1999/xlink" x="0px" y="0px"
	 viewBox="0 0 36 36" style="enable-background:new 0 0 36 36;" xml:space="preserve">
<style type="text/css">
	.st0{display:none;fill:#FFFFFF;}
	.st1{fill:#3F3F3F;}
</style>
<rect class="st0" width="36" height="36"/>
<path class="st1" d="M11.6,8.8h12.9c1.9,0,3.8,0,5.2,1.1c1.5,1.2,1.6,2.7,1.7,4.4l1.4,17.2c0.2,2.4-1.1,3.6-4,3.6H7.2
	c-2.9,0-4.2-1.2-4-3.6l1.4-17.2c0.1-1.6,0.2-3.2,1.7-4.4C7.8,8.7,9.7,8.8,11.6,8.8z M7.7,11.1c-1.1,0.8-1,2.1-1.1,3.3L5.2,31.5
	c-0.1,1.4,0.3,1.8,2,1.8h21.6c1.7,0,2.1-0.4,2-1.8l-1.4-17.1c-0.1-1.1,0-2.4-1-3.2c-1.1-0.9-2.6-0.7-4-0.7H11.6
	C10.3,10.4,8.8,10.3,7.7,11.1z"/>
<path class="st1" d="M10.5,12.5h1.1c0.2,0,0.4-0.2,0.4-0.4V10c0-3.3,2.7-6,6-6s6,2.7,6,6v2.1c0,0.2,0.2,0.4,0.4,0.4h1.1
	c0.6,0,1,0.4,1,1s-0.4,1-1,1h-1.1c-1.3,0-2.4-1.1-2.4-2.4V10c0-2.2-1.8-4-4-4s-4,1.8-4,4v2.1c0,1.3-1.1,2.4-2.4,2.4h-1.1
	c-0.6,0-1-0.4-1-1S9.9,12.5,10.5,12.5z"/>
</svg>
