<?xml version="1.0" encoding="utf-8"?>
<!-- Generator: Adobe Illustrator 22.0.1, SVG Export Plug-In . SVG Version: 6.00 Build 0)  -->
<svg version="1.1" id="Слой_1" xmlns="http://www.w3.org/2000/svg" xmlns:xlink="http://www.w3.org/1999/xlink" x="0px" y="0px"
	 viewBox="0 0 32 32" style="enable-background:new 0 0 32 32;" xml:space="preserve">
<style type="text/css">
	.st0{fill:#FFFFFF;}
	.st1{fill:#7BB57C;}
	.st2{fill:#333333;}
</style>
<path d="M5,0h22c2.8,0,5,2.2,5,5v22c0,2.8-2.2,5-5,5H5c-2.8,0-5-2.2-5-5V5C0,2.2,2.2,0,5,0z M13.6,25h3.3v-9h2.5l0.5-2.8h-2.9v-2
	c0-0.7,0.4-1.3,1-1.3h1.7V7h-2v0c-3.2,0.1-3.9,2-3.9,3.9h0v2.3H12V16h1.6V25z"/>
<path d="M5,1C2.8,1,1,2.8,1,5v22c0,2.2,1.8,4,4,4h22c2.2,0,4-1.8,4-4V5c0-2.2-1.8-4-4-4H5z M5,0h22c2.8,0,5,2.2,5,5v22
	c0,2.8-2.2,5-5,5H5c-2.8,0-5-2.2-5-5V5C0,2.2,2.2,0,5,0z"/>
<path class="st0" d="M13.6,25h3.3v-9h2.5l0.5-2.8h-2.9v-2c0-0.7,0.4-1.3,1-1.3h1.7V7h-2v0c-3.2,0.1-3.9,2-3.9,3.9h0v2.3H12V16h1.6
	V25z"/>
<path class="st1" d="M5,0h22c2.8,0,5,2.2,5,5v22c0,2.8-2.2,5-5,5H5c-2.8,0-5-2.2-5-5V5C0,2.2,2.2,0,5,0z M13.6,25h3.3v-9h2.5
	l0.5-2.8h-2.9v-2c0-0.7,0.4-1.3,1-1.3h1.7V7h-2v0c-3.2,0.1-3.9,2-3.9,3.9h0v2.3H12V16h1.6V25z"/>
<path class="st1" d="M5,1C2.8,1,1,2.8,1,5v22c0,2.2,1.8,4,4,4h22c2.2,0,4-1.8,4-4V5c0-2.2-1.8-4-4-4H5z M5,0h22c2.8,0,5,2.2,5,5v22
	c0,2.8-2.2,5-5,5H5c-2.8,0-5-2.2-5-5V5C0,2.2,2.2,0,5,0z"/>
<path class="st2" d="M13.6,25h3.3v-9h2.5l0.5-2.8h-2.9v-2c0-0.7,0.4-1.3,1-1.3h1.7V7h-2v0c-3.2,0.1-3.9,2-3.9,3.9h0v2.3H12V16h1.6
	V25z"/>
</svg>
