<?xml version="1.0" encoding="utf-8"?>
<!-- Generator: Adobe Illustrator 22.0.1, SVG Export Plug-In . SVG Version: 6.00 Build 0)  -->
<svg version="1.1" id="Слой_1" xmlns="http://www.w3.org/2000/svg" xmlns:xlink="http://www.w3.org/1999/xlink" x="0px" y="0px"
	 viewBox="0 0 32 32" style="enable-background:new 0 0 32 32;" xml:space="preserve">
<style type="text/css">
	.st0{fill:#7BB57C;}
	.st1{fill:none;}
	.st2{fill:#FFFFFF;}
	.st3{fill:#333333;}
</style>
<path class="st0" d="M5,0h22c2.8,0,5,2.2,5,5v22c0,2.8-2.2,5-5,5H5c-2.8,0-5-2.2-5-5V5C0,2.2,2.2,0,5,0z M12.7,8
	C10.1,8,8,10.1,8,12.7v6.6c0,2.6,2.1,4.7,4.7,4.7h6.6c2.6,0,4.7-2.1,4.7-4.7v-6.6c0-2.6-2.1-4.7-4.7-4.7H12.7z M12.7,9.5h6.6
	c1.8,0,3.3,1.5,3.3,3.3v6.6c0,1.8-1.5,3.3-3.3,3.3h-6.6c-1.8,0-3.3-1.5-3.3-3.3v-6.6C9.5,10.9,10.9,9.5,12.7,9.5z M20.3,11
	c-0.4,0-0.7,0.3-0.7,0.7s0.3,0.7,0.7,0.7c0.4,0,0.7-0.3,0.7-0.7S20.7,11,20.3,11z M16,11.6c-2.4,0-4.4,2-4.4,4.4s2,4.4,4.4,4.4
	s4.4-2,4.4-4.4S18.4,11.6,16,11.6z M16,13.1c1.6,0,2.9,1.3,2.9,2.9s-1.3,2.9-2.9,2.9s-2.9-1.3-2.9-2.9S14.4,13.1,16,13.1z"/>
<path class="st1" d="M5,0h22c2.8,0,5,2.2,5,5v22c0,2.8-2.2,5-5,5H5c-2.8,0-5-2.2-5-5V5C0,2.2,2.2,0,5,0z M12.7,8
	C10.1,8,8,10.1,8,12.7v6.6c0,2.6,2.1,4.7,4.7,4.7h6.6c2.6,0,4.7-2.1,4.7-4.7v-6.6c0-2.6-2.1-4.7-4.7-4.7H12.7z M12.7,9.5h6.6
	c1.8,0,3.3,1.5,3.3,3.3v6.6c0,1.8-1.5,3.3-3.3,3.3h-6.6c-1.8,0-3.3-1.5-3.3-3.3v-6.6C9.5,10.9,10.9,9.5,12.7,9.5z M20.3,11
	c-0.4,0-0.7,0.3-0.7,0.7s0.3,0.7,0.7,0.7c0.4,0,0.7-0.3,0.7-0.7S20.7,11,20.3,11z M16,11.6c-2.4,0-4.4,2-4.4,4.4s2,4.4,4.4,4.4
	s4.4-2,4.4-4.4S18.4,11.6,16,11.6z M16,13.1c1.6,0,2.9,1.3,2.9,2.9s-1.3,2.9-2.9,2.9s-2.9-1.3-2.9-2.9S14.4,13.1,16,13.1z"/>
<path class="st0" d="M5,1C2.8,1,1,2.8,1,5v22c0,2.2,1.8,4,4,4h22c2.2,0,4-1.8,4-4V5c0-2.2-1.8-4-4-4H5z M5,0h22c2.8,0,5,2.2,5,5v22
	c0,2.8-2.2,5-5,5H5c-2.8,0-5-2.2-5-5V5C0,2.2,2.2,0,5,0z"/>
<path class="st2" d="M12.7,8C10.1,8,8,10.1,8,12.7v6.6c0,2.6,2.1,4.7,4.7,4.7h6.6c2.6,0,4.7-2.1,4.7-4.7v-6.6c0-2.6-2.1-4.7-4.7-4.7
	H12.7z M12.7,9.5h6.6c1.8,0,3.3,1.5,3.3,3.3v6.6c0,1.8-1.5,3.3-3.3,3.3h-6.6c-1.8,0-3.3-1.5-3.3-3.3v-6.6
	C9.5,10.9,10.9,9.5,12.7,9.5z M20.3,11c-0.4,0-0.7,0.3-0.7,0.7s0.3,0.7,0.7,0.7c0.4,0,0.7-0.3,0.7-0.7S20.7,11,20.3,11z M16,11.6
	c-2.4,0-4.4,2-4.4,4.4s2,4.4,4.4,4.4s4.4-2,4.4-4.4S18.4,11.6,16,11.6z M16,13.1c1.6,0,2.9,1.3,2.9,2.9s-1.3,2.9-2.9,2.9
	s-2.9-1.3-2.9-2.9S14.4,13.1,16,13.1z"/>
<path class="st3" d="M12.7,8C10.1,8,8,10.1,8,12.7v6.6c0,2.6,2.1,4.7,4.7,4.7h6.6c2.6,0,4.7-2.1,4.7-4.7v-6.6c0-2.6-2.1-4.7-4.7-4.7
	H12.7z M12.7,9.5h6.6c1.8,0,3.3,1.5,3.3,3.3v6.6c0,1.8-1.5,3.3-3.3,3.3h-6.6c-1.8,0-3.3-1.5-3.3-3.3v-6.6
	C9.5,10.9,10.9,9.5,12.7,9.5z M20.3,11c-0.4,0-0.7,0.3-0.7,0.7s0.3,0.7,0.7,0.7c0.4,0,0.7-0.3,0.7-0.7S20.7,11,20.3,11z M16,11.6
	c-2.4,0-4.4,2-4.4,4.4s2,4.4,4.4,4.4s4.4-2,4.4-4.4S18.4,11.6,16,11.6z M16,13.1c1.6,0,2.9,1.3,2.9,2.9s-1.3,2.9-2.9,2.9
	s-2.9-1.3-2.9-2.9S14.4,13.1,16,13.1z"/>
</svg>
