<?xml version="1.0" encoding="utf-8"?>
<!-- Generator: Adobe Illustrator 22.0.1, SVG Export Plug-In . SVG Version: 6.00 Build 0)  -->
<svg version="1.1" id="Capa_1" xmlns="http://www.w3.org/2000/svg" xmlns:xlink="http://www.w3.org/1999/xlink" x="0px" y="0px"
	 viewBox="0 0 512 512" style="enable-background:new 0 0 512 512;" xml:space="preserve">
<style type="text/css">
	.st0{fill:#7BB57C;}
</style>
<g id="XMLID_1487_">
	<g id="XMLID_1153_">
		<path id="XMLID_1329_" class="st0" d="M426.5,283.9l-76.4-119.8c10.8-5.7,18.2-17.1,18.2-30.1c0-14.3-8.9-26.6-21.4-31.6l23.2-81
			c1-3.5,0-7.3-2.5-9.8c-15.4-15.4-40.5-15.4-55.9,0c-3.7,3.7-8.6,5.7-13.8,5.7s-10.1-2-13.8-5.7l0,0c-15.4-15.4-40.4-15.4-55.8-0.1
			l-0.3,0.3c-7.6,7.6-20,7.5-27.5,0l-0.1-0.1c-15.4-15.4-40.5-15.4-55.9,0c-2.6,2.6-3.5,6.3-2.5,9.8l23.2,80.9
			c-12.6,5-21.5,17.3-21.5,31.6c0,13.1,7.4,24.4,18.2,30.1L85.5,283.9C55.9,330.3,54,386.8,80.4,435s75.1,77,130,77h91
			c55,0,103.6-28.8,130-77C458,386.8,456.1,330.3,426.5,283.9L426.5,283.9z M186.2,25.8L186.2,25.8c15.4,15.4,40.4,15.5,55.9,0.2
			l0.3-0.3c7.6-7.6,20-7.5,27.6,0.1l0,0c15.4,15.4,40.5,15.4,55.9,0c6.3-6.3,15.8-7.4,23.2-3.3L326.8,100H185.2L163,22.4
			C170.4,18.4,179.9,19.5,186.2,25.8L186.2,25.8z M414,425.4c-22.9,41.7-64.9,66.6-112.5,66.6h-91c-47.6,0-89.6-24.9-112.5-66.6
			c-22.9-41.7-21.3-90.6,4.3-130.7L183.1,168H211c5.5,0,10-4.5,10-10s-4.5-10-10-10h-33.3c-7.7,0-14-6.3-14-14c0-7.7,6.3-14,14-14h0
			h156.6c7.7,0,14,6.3,14,14c0,7.7-6.3,14-14,14H301c-5.5,0-10,4.5-10,10s4.5,10,10,10h27.9l80.8,126.7
			C435.3,334.8,436.9,383.7,414,425.4L414,425.4z"/>
		<path id="XMLID_1341_" class="st0" d="M273.6,326.6c-2.5-0.9-5.1-1.8-7.6-2.8v-45.3c6.8,2,11.3,5.2,11.5,5.4
			c4.4,3.3,10.6,2.4,14-2c3.3-4.4,2.5-10.7-1.9-14c-0.6-0.4-9.9-7.3-23.5-10v-10c0-5.5-4.5-10-10-10s-10,4.5-10,10v9.9
			c-1.7,0.3-3.4,0.7-5.2,1.3c-14.1,4.2-24.6,16.3-27.5,31.4c-2.6,13.8,1.8,27.2,11.6,34.8c5.3,4.1,11.9,7.9,21,12v58
			c-7.9-0.5-13.1-2.3-21.9-8c-4.6-3-10.8-1.7-13.8,2.9c-3,4.6-1.7,10.8,2.9,13.8c12.8,8.4,21.5,10.8,32.9,11.3v10.3
			c0,5.5,4.5,10,10,10c5.5,0,10-4.5,10-10v-11.4c21.4-4.7,33.9-22.6,36.8-39.3C306.4,353.1,295,334.1,273.6,326.6L273.6,326.6z
			 M237.3,309.6c-3.8-3-5.5-8.9-4.3-15.4c1.1-5.9,5.1-13.1,13-15.8v36.6C242.7,313.4,239.7,311.5,237.3,309.6z M283,371.7
			c-1.4,8.6-7.2,17.7-17,21.7v-48.2c0.3,0.1,0.6,0.2,1,0.3C284.9,351.8,283.8,367.1,283,371.7z"/>
		<path id="XMLID_1343_" class="st0" d="M256,168c2.6,0,5.2-1.1,7.1-2.9s2.9-4.4,2.9-7.1s-1.1-5.2-2.9-7.1c-1.9-1.9-4.4-2.9-7.1-2.9
			s-5.2,1.1-7.1,2.9c-1.9,1.9-2.9,4.4-2.9,7.1s1.1,5.2,2.9,7.1C250.8,166.9,253.4,168,256,168L256,168z"/>
	</g>
</g>
</svg>
