<?xml version="1.0" encoding="utf-8"?>
<!-- Generator: Adobe Illustrator 22.0.1, SVG Export Plug-In . SVG Version: 6.00 Build 0)  -->
<svg version="1.1" id="Capa_1" xmlns="http://www.w3.org/2000/svg" xmlns:xlink="http://www.w3.org/1999/xlink" x="0px" y="0px"
	 viewBox="0 0 512 512" style="enable-background:new 0 0 512 512;" xml:space="preserve">
<style type="text/css">
	.st0{fill:#7BB57C;}
</style>
<g>
	<g>
		<path class="st0" d="M431.3,287.4c-5.5,0-10,4.5-10,10v67.2c0,20.1-10.9,38.7-28.3,48.5l-137,77.4l-137-77.4
			c-17.5-9.9-28.3-28.5-28.3-48.5c0-0.1,0-0.2,0-0.2V99.6c21.6-1.3,73.8-7.6,121.8-37.2c16.7-10.3,31.4-22.7,43.8-36.7
			c12.4,14.1,27.1,26.4,43.8,36.7c45.7,28.3,99.5,35.7,121.2,37.6v109.5c0,5.5,4.5,10,10,10c5.5,0,10-4.5,10-10V90.6
			c0-5.4-4.3-9.8-9.7-10c-0.7,0-68.1-2.5-121-35.2C292.2,34,276.7,20,264.3,3.9c-3.9-5.1-11.9-5.1-15.9,0C236,20,220.4,34,202,45.4
			C146,80,81.4,80,80.8,79.9c-5.5-0.1-10.1,4.6-10.1,10v274.7c0,0.1,0,0.2,0,0.3c0.1,27.2,14.8,52.3,38.5,65.7l141.9,80.2
			c3,1.7,6.8,1.7,9.8,0l141.9-80.2c23.7-13.4,38.5-38.7,38.5-65.9v-67.2C441.3,291.9,436.8,287.4,431.3,287.4L431.3,287.4z"/>
		<path class="st0" d="M143.4,260c0,62.8,51.1,113.8,113.8,113.8S371.1,322.7,371.1,260S320,146.1,257.2,146.1
			S143.4,197.2,143.4,260L143.4,260z M351.1,260c0,51.7-42.1,93.8-93.8,93.8s-93.8-42.1-93.8-93.8s42.1-93.8,93.8-93.8
			S351.1,208.2,351.1,260z"/>
		<path class="st0" d="M223.3,252.4c-3.6-4.2-10-4.6-14.1-0.9c-4.2,3.6-4.6,10-0.9,14.1l27.5,31.4c1.8,2.1,4.4,3.3,7.2,3.4
			c0.1,0,0.2,0,0.3,0c2.6,0,5.2-1.1,7.1-2.9l60.8-60.8c3.9-3.9,3.9-10.2,0-14.1c-3.9-3.9-10.2-3.9-14.1,0l-53.2,53.2L223.3,252.4z"
			/>
		<path class="st0" d="M440.5,250.2c-2.1-5-8-7.5-13.1-5.4c-5,2.1-7.5,8-5.4,13.1c2.1,5,8,7.5,13.1,5.4
			C440.1,261.1,442.6,255.2,440.5,250.2L440.5,250.2z"/>
	</g>
</g>
</svg>
