<svg id="Capa_1" enable-background="new 0 0 511.925 511.925" height="512" viewBox="0 0 511.925 511.925" width="512" xmlns="http://www.w3.org/2000/svg"><g><g><path d="m431.208 287.374c-5.522 0-10 4.477-10 10v67.185c0 20.058-10.849 38.648-28.312 48.517l-136.933 77.376-136.933-77.376c-17.463-9.868-28.311-28.458-28.311-48.517 0-.081-.001-.163-.003-.244v-264.717c21.573-1.307 73.839-7.562 121.792-37.227 16.715-10.342 31.393-22.653 43.768-36.695 12.383 14.052 27.061 26.363 43.769 36.695 45.707 28.279 99.472 35.667 121.162 37.555v109.492c0 5.523 4.478 10 10 10s10-4.477 10-10v-118.86c0-5.402-4.297-9.828-9.696-9.996-.674-.021-68.049-2.474-120.945-35.2-18.362-11.354-33.956-25.318-46.349-41.503-3.937-5.144-11.941-5.144-15.879 0-12.384 16.173-27.979 30.137-46.352 41.505-55.972 34.626-120.555 34.581-121.181 34.574-5.477-.109-10.088 4.562-10.088 10v274.621c0 .087.001.175.003.262.096 27.156 14.818 52.301 38.471 65.667l141.853 80.156c3.023 1.709 6.817 1.709 9.84 0l141.853-80.156c23.73-13.41 38.472-38.672 38.472-65.929v-67.185c-.001-5.523-4.479-10-10.001-10z"/><path d="m143.385 259.937c0 62.762 51.061 113.822 113.822 113.822s113.822-51.06 113.822-113.822-51.061-113.822-113.822-113.822-113.822 51.061-113.822 113.822zm207.645 0c0 51.733-42.089 93.822-93.822 93.822s-93.822-42.088-93.822-93.822 42.089-93.822 93.822-93.822 93.822 42.089 93.822 93.822z"/><path d="m223.269 252.329c-3.641-4.154-9.957-4.57-14.112-.931-4.153 3.64-4.57 9.958-.931 14.111l27.519 31.404c1.823 2.081 4.428 3.313 7.192 3.404.11.003.22.005.329.005 2.647 0 5.192-1.051 7.071-2.929l60.773-60.773c3.905-3.905 3.905-10.237 0-14.143-3.906-3.905-10.236-3.905-14.143 0l-53.219 53.223z"/><path d="m440.442 250.117c-2.065-5.038-8.039-7.494-13.06-5.41-5.035 2.09-7.497 8.02-5.41 13.06 2.082 5.03 8.037 7.485 13.06 5.4 5.024-2.086 7.508-8.015 5.41-13.05z"/></g></g></svg>