<?xml version="1.0" encoding="iso-8859-1"?>
<!-- Generator: Adobe Illustrator 19.0.0, SVG Export Plug-In . SVG Version: 6.00 Build 0)  -->
<svg version="1.1" id="Capa_1" xmlns="http://www.w3.org/2000/svg" xmlns:xlink="http://www.w3.org/1999/xlink" x="0px" y="0px"
	 viewBox="0 0 512 512" style="enable-background:new 0 0 512 512;" xml:space="preserve">
<path style="fill:#F5B97D;" d="M487.226,338.581v41.29c0,4.561-3.697,8.258-8.258,8.258h-2.306c-3.555,0-6.71-2.275-7.834-5.647
	l-14.634-43.902h33.032V338.581z"/>
<polygon style="fill:#CD916E;" points="459.699,355.097 454.194,338.581 487.226,338.581 487.226,355.097 "/>
<g>
	<path style="fill:#91E1B4;" d="M49.548,338.581H16.516C7.395,338.581,0,331.186,0,322.065V214.71
		c0-9.122,7.395-16.516,16.516-16.516h16.516c9.122,0,16.516,7.395,16.516,16.516C49.548,214.71,49.548,338.581,49.548,338.581z"/>
	<path style="fill:#91E1B4;" d="M495.484,338.581h-33.032V214.71c0-9.122,7.395-16.516,16.516-16.516h16.516
		c9.122,0,16.516,7.395,16.516,16.516v107.355C512,331.186,504.605,338.581,495.484,338.581z"/>
</g>
<path style="fill:#F5B97D;" d="M24.774,338.581v41.29c0,4.561,3.697,8.258,8.258,8.258h2.306c3.555,0,6.71-2.275,7.834-5.647
	l14.634-43.902H24.774V338.581z"/>
<path style="fill:#73C8A5;" d="M462.452,305.548V165.161c0-13.682-11.092-24.774-24.774-24.774H74.323
	c-13.682,0-24.774,11.092-24.774,24.774v140.387c0,9.122-7.395,16.516-16.516,16.516H0c0,9.121,7.395,16.516,16.516,16.516h478.968
	c9.121,0,16.516-7.395,16.516-16.516h-33.032C469.846,322.065,462.452,314.67,462.452,305.548z"/>
<g>
	<path style="fill:#91E1B4;" d="M231.226,272.516H82.581c-9.122,0-16.516-7.395-16.516-16.516l0,0
		c0-9.122,7.395-16.516,16.516-16.516h148.645c9.122,0,16.516,7.395,16.516,16.516l0,0
		C247.742,265.122,240.347,272.516,231.226,272.516z"/>
	<path style="fill:#91E1B4;" d="M429.419,272.516H280.774c-9.122,0-16.516-7.395-16.516-16.516l0,0
		c0-9.122,7.395-16.516,16.516-16.516h148.645c9.122,0,16.516,7.395,16.516,16.516l0,0
		C445.935,265.122,438.541,272.516,429.419,272.516z"/>
	<path style="fill:#91E1B4;" d="M222.968,222.968H74.323c-13.682,0-24.774-11.092-24.774-24.774v-49.548
		c0-13.682,11.092-24.774,24.774-24.774h148.645c13.682,0,24.774,11.092,24.774,24.774v49.548
		C247.742,211.876,236.65,222.968,222.968,222.968z"/>
	<path style="fill:#91E1B4;" d="M437.677,222.968H289.032c-13.682,0-24.774-11.092-24.774-24.774v-49.548
		c0-13.682,11.092-24.774,24.774-24.774h148.645c13.682,0,24.774,11.092,24.774,24.774v49.548
		C462.452,211.876,451.36,222.968,437.677,222.968z"/>
	<path style="fill:#91E1B4;" d="M429.419,322.065H82.581c-9.122,0-16.516-7.395-16.516-16.516l0,0
		c0-9.122,7.395-16.516,16.516-16.516H429.42c9.122,0,16.516,7.395,16.516,16.516l0,0
		C445.935,314.67,438.541,322.065,429.419,322.065z"/>
</g>
<g>
	<path style="fill:#AFF5BE;" d="M82.581,239.484h148.645c9.122,0,16.516,7.395,16.516,16.516l0,0H66.065l0,0
		C66.065,246.878,73.459,239.484,82.581,239.484z"/>
	<path style="fill:#AFF5BE;" d="M16.516,198.194h16.516c9.122,0,16.516,7.395,16.516,16.516l0,0H0l0,0
		C0,205.588,7.395,198.194,16.516,198.194z"/>
	<path style="fill:#AFF5BE;" d="M478.968,198.194h16.516c9.122,0,16.516,7.395,16.516,16.516l0,0h-49.548l0,0
		C462.452,205.588,469.846,198.194,478.968,198.194z"/>
	<path style="fill:#AFF5BE;" d="M280.774,239.484h148.645c9.122,0,16.516,7.395,16.516,16.516l0,0H264.258l0,0
		C264.258,246.878,271.653,239.484,280.774,239.484z"/>
	<path style="fill:#AFF5BE;" d="M156.903,189.935h-16.516c-4.561,0-8.258-3.697-8.258-8.258l0,0c0-4.561,3.697-8.258,8.258-8.258
		h16.516c4.561,0,8.258,3.697,8.258,8.258l0,0C165.161,186.238,161.464,189.935,156.903,189.935z"/>
	<path style="fill:#AFF5BE;" d="M371.613,189.935h-16.516c-4.561,0-8.258-3.697-8.258-8.258l0,0c0-4.561,3.697-8.258,8.258-8.258
		h16.516c4.561,0,8.258,3.697,8.258,8.258l0,0C379.871,186.238,376.174,189.935,371.613,189.935z"/>
</g>
<polygon style="fill:#CD916E;" points="52.301,355.097 57.806,338.581 24.774,338.581 24.774,355.097 "/>
<g>
	<path style="fill:#AFF5BE;" d="M51.066,140.387h195.159c-3.413-9.6-12.486-16.516-23.257-16.516H74.323
		C63.551,123.871,54.478,130.787,51.066,140.387z"/>
	<path style="fill:#AFF5BE;" d="M265.775,140.387h195.159c-3.413-9.6-12.486-16.516-23.257-16.516H289.032
		C278.261,123.871,269.188,130.787,265.775,140.387z"/>
</g>
<g>
</g>
<g>
</g>
<g>
</g>
<g>
</g>
<g>
</g>
<g>
</g>
<g>
</g>
<g>
</g>
<g>
</g>
<g>
</g>
<g>
</g>
<g>
</g>
<g>
</g>
<g>
</g>
<g>
</g>
</svg>
