<?xml version="1.0" encoding="utf-8"?>
<!-- Generator: Adobe Illustrator 22.0.1, SVG Export Plug-In . SVG Version: 6.00 Build 0)  -->
<svg version="1.1" id="Capa_1" xmlns="http://www.w3.org/2000/svg" xmlns:xlink="http://www.w3.org/1999/xlink" x="0px" y="0px"
	 viewBox="0 0 512 512" style="enable-background:new 0 0 512 512;" xml:space="preserve">
<style type="text/css">
	.st0{display:none;fill:#F5B97D;}
	.st1{display:none;fill:#CD916E;}
	.st2{display:none;}
	.st3{display:inline;fill:#91E1B4;}
	.st4{display:none;fill:#73C8A5;}
	.st5{display:inline;fill:#AFF5BE;}
	.st6{fill:#7BB57C;}
	.st7{display:inline;}
</style>
<path class="st0" d="M487.2,338.6v41.3c0,4.6-3.7,8.3-8.3,8.3h-2.3c-3.6,0-6.7-2.3-7.8-5.6l-14.6-43.9L487.2,338.6L487.2,338.6z"/>
<polygon class="st1" points="459.7,355.1 454.2,338.6 487.2,338.6 487.2,355.1 "/>
<g class="st2">
	<path class="st3" d="M49.5,338.6h-33c-9.1,0-16.5-7.4-16.5-16.5V214.7c0-9.1,7.4-16.5,16.5-16.5H33c9.1,0,16.5,7.4,16.5,16.5
		C49.5,214.7,49.5,338.6,49.5,338.6z"/>
	<path class="st3" d="M495.5,338.6h-33V214.7c0-9.1,7.4-16.5,16.5-16.5h16.5c9.1,0,16.5,7.4,16.5,16.5v107.4
		C512,331.2,504.6,338.6,495.5,338.6z"/>
</g>
<path class="st0" d="M24.8,338.6v41.3c0,4.6,3.7,8.3,8.3,8.3h2.3c3.6,0,6.7-2.3,7.8-5.6l14.6-43.9L24.8,338.6L24.8,338.6z"/>
<path class="st4" d="M462.5,305.5V165.2c0-13.7-11.1-24.8-24.8-24.8H74.3c-13.7,0-24.8,11.1-24.8,24.8v140.4
	c0,9.1-7.4,16.5-16.5,16.5H0c0,9.1,7.4,16.5,16.5,16.5h479c9.1,0,16.5-7.4,16.5-16.5h-33C469.8,322.1,462.5,314.7,462.5,305.5z"/>
<g class="st2">
	<path class="st3" d="M231.2,272.5H82.6c-9.1,0-16.5-7.4-16.5-16.5l0,0c0-9.1,7.4-16.5,16.5-16.5h148.6c9.1,0,16.5,7.4,16.5,16.5
		l0,0C247.7,265.1,240.3,272.5,231.2,272.5z"/>
	<path class="st3" d="M429.4,272.5H280.8c-9.1,0-16.5-7.4-16.5-16.5l0,0c0-9.1,7.4-16.5,16.5-16.5h148.6c9.1,0,16.5,7.4,16.5,16.5
		l0,0C445.9,265.1,438.5,272.5,429.4,272.5z"/>
	<path class="st3" d="M223,223H74.3c-13.7,0-24.8-11.1-24.8-24.8v-49.5c0-13.7,11.1-24.8,24.8-24.8H223c13.7,0,24.8,11.1,24.8,24.8
		v49.5C247.7,211.9,236.6,223,223,223z"/>
	<path class="st3" d="M437.7,223H289c-13.7,0-24.8-11.1-24.8-24.8v-49.5c0-13.7,11.1-24.8,24.8-24.8h148.6
		c13.7,0,24.8,11.1,24.8,24.8v49.5C462.5,211.9,451.4,223,437.7,223z"/>
	<path class="st3" d="M429.4,322.1H82.6c-9.1,0-16.5-7.4-16.5-16.5l0,0c0-9.1,7.4-16.5,16.5-16.5h346.8c9.1,0,16.5,7.4,16.5,16.5
		l0,0C445.9,314.7,438.5,322.1,429.4,322.1z"/>
</g>
<g class="st2">
	<path class="st5" d="M82.6,239.5h148.6c9.1,0,16.5,7.4,16.5,16.5l0,0H66.1l0,0C66.1,246.9,73.5,239.5,82.6,239.5z"/>
	<path class="st5" d="M16.5,198.2H33c9.1,0,16.5,7.4,16.5,16.5l0,0H0l0,0C0,205.6,7.4,198.2,16.5,198.2z"/>
	<path class="st5" d="M479,198.2h16.5c9.1,0,16.5,7.4,16.5,16.5l0,0h-49.5l0,0C462.5,205.6,469.8,198.2,479,198.2z"/>
	<path class="st5" d="M280.8,239.5h148.6c9.1,0,16.5,7.4,16.5,16.5l0,0H264.3l0,0C264.3,246.9,271.7,239.5,280.8,239.5z"/>
	<path class="st5" d="M156.9,189.9h-16.5c-4.6,0-8.3-3.7-8.3-8.3l0,0c0-4.6,3.7-8.3,8.3-8.3h16.5c4.6,0,8.3,3.7,8.3,8.3l0,0
		C165.2,186.2,161.5,189.9,156.9,189.9z"/>
	<path class="st5" d="M371.6,189.9h-16.5c-4.6,0-8.3-3.7-8.3-8.3l0,0c0-4.6,3.7-8.3,8.3-8.3h16.5c4.6,0,8.3,3.7,8.3,8.3l0,0
		C379.9,186.2,376.2,189.9,371.6,189.9z"/>
</g>
<polygon class="st1" points="52.3,355.1 57.8,338.6 24.8,338.6 24.8,355.1 "/>
<g class="st2">
	<path class="st5" d="M51.1,140.4h195.2c-3.4-9.6-12.5-16.5-23.3-16.5H74.3C63.6,123.9,54.5,130.8,51.1,140.4z"/>
	<path class="st5" d="M265.8,140.4h195.2c-3.4-9.6-12.5-16.5-23.3-16.5H289C278.3,123.9,269.2,130.8,265.8,140.4z"/>
</g>
<g>
	<path class="st6" d="M458.5,196.2c-25.9,2.3-45.5,24.5-45.5,50.5V356c0,8.3-6.7,15-15,15H116c-8.3,0-15-6.7-15-15V246.7
		c0-26-19.6-48.3-45.5-50.5C25.8,193.6,1,216.9,1,246c0,24.2,17.2,44.4,40,49v91c0,24.9,20.1,45,45,45h11v15c0,8.3-6.7,15-15,15
		c-8.3,0-15,6.7-15,15s6.7,15,15,15c24.8,0,45-20.2,45-45v-15h260v15c0,24.8,20.2,45,45,45c8.3,0,15-6.7,15-15s-6.7-15-15-15
		c-8.3,0-15-6.7-15-15v-15h11c24.9,0,45-20.1,45-45v-91c22.8-4.6,40-24.8,40-49C513,216.9,488.2,193.6,458.5,196.2z"/>
	<path class="st6" d="M297,301c-13.8,0-25,11.2-25,25v15h111v-15c0-13.8-11.2-25-25-25H297z"/>
	<path class="st6" d="M156,301c-13.8,0-25,11.2-25,25v15h111v-15c0-13.8-11.2-25-25-25H156z"/>
	<path class="st6" d="M58.1,166.3c20.1,1.7,38.7,11.1,52.2,26.3c13.3,14.9,20.7,34.2,20.7,54.2V277c7.5-3.8,16-6,25-6h61
		c15.8,0,30,6.7,40,17.3c10-10.6,24.3-17.3,40-17.3h61c9,0,17.5,2.2,25,6v-30.3c0-20,7.3-39.3,20.7-54.2
		c13.6-15.2,32.1-24.5,52.2-26.3c2.3-0.2,4.7-0.3,7.1-0.3c5.1,0,10.2,0.5,15.1,1.4C465.6,123.4,425,91,377,91c-4.6,0-9.2,0.3-13.9,1
		C345.5,49.6,303.7,21,257,21s-88.5,28.6-106.1,71c-4.6-0.6-9.3-1-13.9-1c-48,0-88.6,32.4-101.1,76.4c4.9-0.9,9.9-1.4,15.1-1.4
		C53.3,166,55.7,166.1,58.1,166.3L58.1,166.3z M312,161c8.3,0,15,6.7,15,15s-6.7,15-15,15s-15-6.7-15-15S303.7,161,312,161z
		 M257,106c8.3,0,15,6.7,15,15s-6.7,15-15,15s-15-6.7-15-15S248.7,106,257,106z M257,216c8.3,0,15,6.7,15,15s-6.7,15-15,15
		s-15-6.7-15-15S248.7,216,257,216z M202,161c8.3,0,15,6.7,15,15s-6.7,15-15,15s-15-6.7-15-15S193.7,161,202,161z"/>
</g>
<g class="st2">
	<g class="st7">
		<g>
			<path class="st6" d="M73.9,228.4c44.2,0,80.1,35.7,80.1,79.6c0,3.5-0.3,7-0.8,10.4c35.6-6.6,71.8-9.9,108.1-9.9
				c33.2,0,66.4,2.7,99.2,7.9c-0.2-2.3-0.5-4.6-0.5-6.9c0-44.7,35.9-81.2,80.1-81.2c3.2,0,6.3,0.2,9.4,0.6c1.3-8.6,1.9-17.3,2-26
				c0-105.9-87.3-192-194.5-192S62.5,97.1,62.5,203c0.1,8.7,0.8,17.4,2,26C67.6,228.6,70.8,228.4,73.9,228.4z"/>
			<path class="st6" d="M128.9,323.4c1.5-5,2.2-10.2,2.3-15.4c0-31.3-25.7-56.7-57.2-56.7S16.7,276.7,16.7,308
				c0,21.4,7.9,45.9,29,55.3c6.3-11.4,18.5-22.2,41.1-28.9C100.9,330.2,114.9,326.6,128.9,323.4z"/>
			<path class="st6" d="M434.7,356.4c-56.4-16.4-114.8-24.8-173.5-25c-56.3,0-111.3,8.2-168,25c-27.6,8.2-30.8,21.9-30.8,31.5v42.4
				c0,17.6,16.3,34.8,34.3,37.8v23.5c0,6.3,5.1,11.4,11.4,11.4h11.4c6.3,0,11.4-5.1,11.4-11.4v-22.9h251.7v22.9
				c0,6.3,5.1,11.4,11.4,11.4h11.4c6.3,0,11.4-5.1,11.4-11.4v-22.9h6.4c20.6,0,27.9-20.7,27.9-38.4v-42.4
				C451.5,363.1,445.2,359.5,434.7,356.4z"/>
			<path class="st6" d="M440.1,251.3c-31.5,0-57.2,26.1-57.2,58.3c0,3.7,0.4,7.3,1.1,10.9c22.2,4.3,41.6,9.3,57.2,13.9
				c17.4,5.2,25.7,15.2,29.7,27.2c16.6-9,26.3-27.6,26.3-52.1C497.3,277.4,471.6,251.3,440.1,251.3z"/>
		</g>
	</g>
</g>
</svg>
