<?xml version="1.0" encoding="utf-8"?>
<!-- Generator: Adobe Illustrator 22.0.1, SVG Export Plug-In . SVG Version: 6.00 Build 0)  -->
<svg version="1.1" id="Слой_1" xmlns="http://www.w3.org/2000/svg" xmlns:xlink="http://www.w3.org/1999/xlink" x="0px" y="0px"
	 viewBox="0 0 32 32" style="enable-background:new 0 0 32 32;" xml:space="preserve">
<style type="text/css">
	.st0{fill:#7BB57C;}
	.st1{fill:#333333;}
</style>
<path class="st0" d="M5,0h22c2.8,0,5,2.2,5,5v22c0,2.8-2.2,5-5,5H5c-2.8,0-5-2.2-5-5V5C0,2.2,2.2,0,5,0z M24.8,11.5
	c-0.2-1.3-0.5-1.7-0.7-1.9c-0.4-0.3-1-0.4-1.9-0.4C20.9,9.1,18.5,9,16,9c-2.5,0-4.9,0.1-6.3,0.2C8.9,9.2,8.2,9.3,7.9,9.6
	c-0.2,0.2-0.5,0.6-0.7,1.9c-0.2,1.9-0.2,6.3,0,8.2c0.2,1.3,0.5,1.7,0.7,1.9c0.4,0.3,1,0.4,1.9,0.4c1.4,0.1,3.7,0.2,6.3,0.2
	s4.9-0.1,6.3-0.2c0.9-0.1,1.5-0.2,1.9-0.4c0.2-0.2,0.5-0.6,0.7-1.9C25.1,17.8,25.1,13.4,24.8,11.5z M13.8,18.4v-5.7l5.4,2.9
	L13.8,18.4z"/>
<path class="st0" d="M5,1C2.8,1,1,2.8,1,5v22c0,2.2,1.8,4,4,4h22c2.2,0,4-1.8,4-4V5c0-2.2-1.8-4-4-4H5z M5,0h22c2.8,0,5,2.2,5,5v22
	c0,2.8-2.2,5-5,5H5c-2.8,0-5-2.2-5-5V5C0,2.2,2.2,0,5,0z"/>
<path class="st1" d="M24.8,11.5c-0.2-1.3-0.5-1.7-0.7-1.9c-0.4-0.3-1-0.4-1.9-0.4C20.9,9.1,18.5,9,16,9c-2.5,0-4.9,0.1-6.3,0.2
	C8.9,9.2,8.2,9.3,7.9,9.6c-0.2,0.2-0.5,0.6-0.7,1.9c-0.2,1.9-0.2,6.3,0,8.2c0.2,1.3,0.5,1.7,0.7,1.9c0.4,0.3,1,0.4,1.9,0.4
	c1.4,0.1,3.7,0.2,6.3,0.2s4.9-0.1,6.3-0.2c0.9-0.1,1.5-0.2,1.9-0.4c0.2-0.2,0.5-0.6,0.7-1.9C25.1,17.8,25.1,13.4,24.8,11.5z
	 M13.8,18.4v-5.7l5.4,2.9L13.8,18.4z"/>
</svg>
